<?xml version="1.0" standalone="no"?>
<!DOCTYPE svg PUBLIC "-//W3C//DTD SVG 20010904//EN"
 "http://www.w3.org/TR/2001/REC-SVG-20010904/DTD/svg10.dtd">
<svg version="1.0" xmlns="http://www.w3.org/2000/svg"
 width="3296.000000pt" height="3296.000000pt" viewBox="0 0 3296.000000 3296.000000"
 preserveAspectRatio="xMidYMid meet">
<metadata>
Created by potrace 1.11, written by Peter Selinger 2001-2013
</metadata>
<g transform="translate(0.000000,3296.000000) scale(0.100000,-0.100000)"
fill="#000000" stroke="none">
<path d="M15620 21232 c0 -14 11 -21 26 -15 21 8 17 23 -6 23 -11 0 -20 -4
-20 -8z"/>
<path d="M15670 21229 c0 -10 16 -14 56 -16 40 -1 59 -6 68 -19 7 -10 20 -15
28 -11 9 3 20 1 26 -5 6 -6 12 -6 17 1 3 6 0 13 -7 15 -7 3 -31 10 -53 17 -22
7 -44 14 -50 15 -81 16 -85 16 -85 3z"/>
<path d="M15876 21164 c-3 -8 -2 -13 3 -9 5 3 11 0 13 -5 2 -6 11 -4 23 5 11
9 14 14 8 10 -7 -3 -13 -1 -13 4 0 17 -27 13 -34 -5z"/>
<path d="M15954 21168 c-4 -6 -3 -8 3 -5 5 3 10 0 10 -7 0 -8 -8 -11 -19 -8
-10 2 -18 -1 -18 -7 0 -7 4 -10 10 -6 12 8 50 -16 50 -32 0 -7 9 -13 19 -13
11 0 23 -5 27 -12 4 -6 3 -8 -3 -5 -16 10 -22 -27 -7 -41 11 -10 16 -9 26 7 6
11 18 17 26 13 10 -3 13 -1 8 6 -10 16 5 14 28 -3 25 -19 36 -19 36 1 0 8 -5
12 -10 9 -6 -3 -13 1 -17 10 -3 10 0 20 6 25 7 4 -11 7 -41 7 -76 0 -112 17
-106 48 5 26 -14 35 -28 13z"/>
<path d="M15835 21151 c-3 -5 -2 -12 3 -15 5 -3 9 1 9 9 0 17 -3 19 -12 6z"/>
<path d="M15930 21089 c-8 -5 -13 -9 -10 -10 3 0 13 -2 23 -4 9 -2 17 1 17 5
0 15 -15 19 -30 9z"/>
<path d="M15790 21080 c0 -5 5 -10 10 -10 6 0 10 5 10 10 0 6 -4 10 -10 10 -5
0 -10 -4 -10 -10z"/>
<path d="M15894 21079 c-3 -6 -1 -16 5 -22 8 -8 11 -5 11 11 0 24 -5 28 -16
11z"/>
<path d="M15656 21058 c3 -4 24 -8 46 -8 23 0 39 3 35 6 -9 10 -87 11 -81 2z"/>
<path d="M15807 21047 c-3 -8 1 -14 9 -14 8 0 14 4 14 9 0 5 5 6 10 3 6 -3 10
-1 10 4 0 16 -37 13 -43 -2z"/>
<path d="M15550 21030 c0 -5 4 -10 9 -10 6 0 13 5 16 10 3 6 -1 10 -9 10 -9 0
-16 -4 -16 -10z"/>
<path d="M16156 21032 c-3 -6 1 -13 10 -16 14 -5 14 -9 3 -23 -13 -15 -12 -15
9 -4 15 8 28 9 41 2 10 -6 21 -7 25 -4 10 10 7 35 -3 29 -5 -4 -11 -2 -13 3
-5 13 -65 24 -72 13z"/>
<path d="M15675 20996 c-21 -9 -26 -14 -16 -20 8 -5 16 -4 21 4 4 7 13 9 19 6
6 -4 11 0 11 8 0 9 -1 16 -2 16 -2 -1 -16 -7 -33 -14z"/>
<path d="M15820 20996 c-45 -14 -62 -25 -55 -37 4 -5 -4 -13 -17 -18 -17 -7
-19 -10 -5 -10 9 -1 17 -5 17 -11 0 -5 -20 -10 -45 -10 -45 0 -58 13 -34 37 7
7 2 10 -21 7 -19 -2 -29 0 -25 6 3 6 -5 10 -19 10 -14 0 -26 -4 -26 -8 0 -5
-13 -8 -30 -7 -16 1 -30 -2 -30 -7 0 -5 -4 -7 -9 -3 -6 3 -14 -2 -18 -10 -5
-9 -21 -18 -35 -20 -29 -6 -44 19 -34 53 4 12 1 19 -8 19 -8 0 -12 -6 -9 -14
4 -9 -4 -13 -25 -13 -16 0 -35 -7 -42 -16 -11 -12 -11 -15 1 -12 10 2 14 -8
15 -35 1 -20 -1 -35 -4 -32 -3 3 -12 -1 -20 -8 -13 -10 -14 -9 -7 3 8 13 7 13
-8 1 -9 -7 -17 -10 -17 -5 0 5 -7 0 -15 -10 -11 -14 -15 -16 -15 -5 -1 10 -5
8 -16 -6 -8 -11 -16 -19 -17 -17 -1 2 -15 -2 -32 -9 -38 -14 -77 -20 -70 -9 3
4 -2 10 -10 14 -8 3 -15 2 -15 -2 0 -4 -13 -12 -28 -18 -28 -11 -28 -11 -25
-87 l4 -75 -88 0 c-76 0 -88 -2 -94 -18 -3 -11 -4 -24 -2 -30 5 -15 -11 -25
-51 -34 -27 -5 -31 -10 -31 -40 0 -33 -2 -35 -37 -38 -37 -3 -38 -4 -38 -43 0
-39 0 -39 -40 -39 -22 0 -41 -3 -41 -7 -1 -5 -2 -24 -3 -44 -2 -41 -20 -69
-45 -69 -12 0 -13 -2 -3 -8 9 -7 8 -14 -8 -33 -43 -51 -65 -71 -86 -79 -16 -6
-21 -16 -19 -34 4 -30 -25 -51 -56 -43 -18 5 -24 -7 -20 -41 4 -23 -20 -42
-53 -42 -29 0 -31 -2 -30 -32 1 -18 -5 -41 -14 -50 -12 -14 -12 -20 -2 -33 11
-13 10 -14 -4 -9 -20 8 -85 -57 -82 -83 0 -10 -5 -17 -11 -15 -7 1 -13 -2 -13
-7 0 -21 -55 -91 -67 -87 -8 3 -13 -2 -13 -14 0 -12 -7 -20 -17 -20 -16 0 -18
-12 -20 -98 -2 -113 -3 -122 -15 -122 -5 0 -2 -7 6 -16 19 -18 21 -64 4 -64
-8 0 -9 -3 -3 -8 14 -10 15 -82 1 -82 -6 0 -4 -5 4 -10 10 -6 11 -10 3 -10 -7
0 -13 -5 -13 -11 0 -5 6 -7 13 -3 8 5 7 2 -2 -9 -9 -12 -17 -14 -25 -8 -8 7
-16 3 -26 -12 -12 -20 -12 -21 3 -9 14 12 15 10 13 -17 -1 -17 -5 -34 -9 -37
-10 -10 -9 -26 1 -20 5 3 8 -7 6 -22 -1 -15 -2 -33 -3 -40 -1 -7 -5 -11 -10
-7 -5 3 -8 17 -5 30 2 14 0 25 -6 25 -6 0 -9 -4 -5 -9 3 -5 1 -12 -4 -15 -5
-3 -7 -15 -4 -26 3 -13 0 -20 -8 -20 -12 0 -12 -2 -1 -9 19 -11 17 -24 -5 -32
-15 -7 -16 -8 -1 -8 16 -1 19 -23 5 -37 -4 -4 -1 -14 6 -22 8 -10 8 -13 1 -9
-7 4 -15 0 -18 -9 -3 -8 -2 -13 3 -10 4 3 7 -6 7 -19 -2 -26 -34 -68 -46 -60
-4 3 -10 -2 -13 -9 -6 -15 16 -40 26 -30 3 3 4 -7 3 -22 -2 -16 -8 -30 -15
-30 -6 -1 -14 -3 -18 -4 -5 -1 -12 -2 -17 -1 -5 1 -5 -4 1 -11 6 -7 10 -31 8
-53 -1 -22 -3 -52 -4 -68 -1 -16 -6 -26 -13 -25 -9 2 -14 -13 -16 -45 -2 -34
-9 -51 -23 -60 -20 -12 -26 -37 -9 -37 6 0 10 -9 10 -20 0 -11 -6 -20 -12 -20
-9 0 -9 -3 -3 -8 15 -10 20 -86 6 -78 -7 4 -9 1 -5 -8 3 -8 2 -21 -2 -28 -4
-7 -9 -31 -9 -54 -1 -22 -6 -47 -11 -55 -5 -8 -9 -25 -9 -39 0 -17 -5 -25 -16
-24 -11 1 -15 -5 -12 -17 4 -13 0 -19 -11 -19 -11 0 -16 -9 -17 -27 0 -16 0
-129 -1 -253 0 -124 -4 -229 -8 -235 -5 -5 -12 -26 -17 -45 -6 -22 -15 -35
-25 -35 -9 0 -19 -3 -23 -6 -3 -4 -7 -91 -9 -195 l-4 -189 -36 1 c-41 1 -38
14 -40 -157 -1 -92 0 -95 20 -91 21 4 28 -8 40 -62 3 -11 9 -25 15 -33 6 -7 9
-19 6 -26 -3 -9 8 -20 29 -29 18 -8 31 -12 29 -7 -3 4 -1 10 5 14 6 4 8 11 5
16 -4 5 3 9 15 9 13 0 19 -4 14 -11 -4 -7 3 -6 17 2 13 7 26 14 29 15 3 0 13
4 23 8 9 5 28 6 42 4 14 -3 26 0 29 8 3 7 16 11 31 10 32 -4 35 2 39 64 1 35
8 54 21 63 12 10 15 19 9 28 -6 10 -1 9 18 -3 14 -9 28 -15 30 -13 2 2 3 44 2
92 -2 69 1 90 13 99 14 10 14 11 -1 17 -9 4 -16 15 -16 24 0 16 -8 18 -47 17
-38 -1 -52 4 -70 23 -13 13 -22 29 -20 36 1 7 -3 11 -9 10 -8 -2 -12 17 -13
52 0 50 2 55 22 55 20 0 22 4 19 45 -3 26 1 52 8 60 9 11 9 15 1 15 -6 0 -11
7 -11 15 0 8 9 15 20 15 18 0 20 7 21 63 1 34 0 72 -1 85 -1 14 4 22 14 22 9
0 16 5 16 10 0 6 7 10 15 10 8 0 15 -4 15 -9 0 -5 6 -11 13 -14 13 -5 16 47 4
60 -10 9 -9 35 1 30 4 -3 7 29 7 71 0 63 3 81 19 96 17 18 17 20 2 31 -22 16
-20 22 9 29 15 4 25 14 26 26 2 29 3 33 14 50 5 8 10 26 11 40 0 14 2 30 2 37
1 6 18 13 39 15 l36 3 1 61 c1 51 6 65 28 87 15 15 33 27 40 27 10 0 13 26 12
108 0 102 1 110 32 168 18 34 31 64 28 67 -3 3 0 16 7 29 7 12 13 37 13 53 1
17 6 30 13 30 21 0 25 13 25 84 0 39 4 72 9 72 5 1 14 2 21 3 6 0 13 22 14 50
2 27 7 52 12 55 4 3 13 19 20 34 8 19 18 27 27 23 10 -3 12 0 8 11 -4 9 -2 14
3 11 5 -4 8 10 7 30 -3 51 24 111 54 118 18 5 23 13 23 41 0 47 39 114 65 111
14 -2 20 3 20 17 0 16 8 21 38 23 31 3 37 7 37 27 0 13 9 39 20 57 18 31 23
33 76 36 32 1 59 4 61 6 2 2 6 17 7 32 2 16 4 31 5 34 0 3 15 7 33 8 40 3 40
3 41 46 1 35 2 36 40 36 21 0 36 -4 33 -8 -2 -4 0 -14 5 -22 7 -12 10 -11 15
8 4 13 12 21 18 19 9 -4 12 8 10 38 -2 32 2 45 14 50 8 3 19 0 23 -7 5 -7 6 8
3 33 l-5 46 108 -1 108 -1 3 -87 c3 -83 2 -88 -17 -88 -18 0 -21 -7 -23 -42 0
-24 0 -53 1 -65 1 -15 -4 -23 -14 -23 -8 0 -15 -6 -15 -14 0 -8 -5 -16 -12
-18 -8 -3 -11 -28 -10 -81 2 -68 0 -77 -15 -77 -16 0 -18 -9 -16 -70 2 -60 0
-72 -17 -82 -13 -9 -20 -24 -20 -45 0 -18 -4 -33 -9 -33 -5 0 -11 -7 -15 -15
-3 -8 0 -14 6 -12 12 2 19 -28 11 -50 -3 -8 -12 -12 -19 -9 -8 3 -14 -2 -15
-12 -1 -9 -2 -42 -4 -72 -4 -81 -4 -82 -14 -75 -15 9 -20 -8 -22 -66 -2 -37
-8 -59 -20 -69 -13 -12 -19 -37 -23 -95 -4 -59 -10 -83 -23 -93 -14 -10 -17
-29 -16 -114 1 -66 -2 -105 -10 -110 -8 -5 -8 -10 0 -20 14 -17 16 -338 2
-338 -5 0 -4 -10 3 -21 9 -15 10 -23 2 -26 -7 -2 -10 -30 -8 -75 2 -45 -2 -78
-9 -87 -9 -11 -9 -13 0 -8 9 6 11 -15 9 -80 -2 -70 -5 -88 -17 -87 -12 1 -14
-26 -14 -162 0 -89 2 -162 5 -162 23 2 27 -9 28 -72 1 -38 -2 -70 -7 -70 -4 0
-7 -15 -8 -32 -1 -54 -3 -58 -14 -58 -8 0 -8 4 0 13 8 10 7 14 -3 14 -8 0 -12
-7 -11 -16 2 -9 4 -20 4 -24 1 -5 6 -5 11 -2 6 3 10 2 10 -4 0 -5 -5 -13 -10
-16 -6 -4 -9 -14 -8 -23 2 -12 -4 -17 -20 -16 -12 1 -20 -1 -17 -4 3 -3 -3
-15 -12 -26 -17 -20 -17 -20 0 -7 15 12 17 11 17 -12 0 -14 -5 -29 -10 -32 -6
-4 -7 -12 -3 -18 14 -23 12 -39 -4 -33 -12 5 -13 3 -5 -7 9 -10 8 -17 -1 -27
-6 -7 -7 -10 -1 -7 6 4 10 -8 11 -32 0 -25 -4 -38 -13 -38 -7 0 -11 4 -8 9 3
4 0 8 -6 8 -6 0 -8 -10 -4 -26 5 -21 4 -25 -6 -19 -9 5 -11 4 -6 -3 4 -7 16
-12 27 -12 22 0 24 -11 7 -28 -9 -9 -9 -12 0 -12 7 0 12 5 12 10 0 6 5 10 10
10 6 0 10 -6 8 -12 -1 -7 3 -23 10 -35 7 -13 10 -23 6 -23 -3 0 -1 -7 6 -15
10 -12 10 -18 -1 -32 -12 -14 -12 -16 0 -8 11 6 13 3 9 -13 -5 -17 -2 -22 14
-22 10 0 17 -4 14 -9 -8 -12 27 -8 36 4 5 6 8 5 8 -3 0 -7 4 -11 8 -8 5 3 9
-1 9 -8 0 -9 -7 -12 -16 -8 -14 5 -14 3 -2 -11 7 -9 17 -14 22 -11 5 3 10 0
10 -5 1 -6 2 -15 3 -20 0 -5 5 -13 10 -18 5 -5 6 -3 2 5 -4 7 -1 12 9 12 9 0
14 -4 10 -9 -3 -5 2 -17 11 -25 9 -9 13 -23 10 -31 -5 -15 6 -18 67 -17 16 0
31 -6 34 -14 3 -7 9 -12 13 -9 5 3 18 -8 29 -23 18 -26 19 -31 5 -50 -12 -17
-12 -21 -1 -16 10 4 13 -3 9 -25 -3 -20 -8 -28 -16 -24 -6 4 -5 -1 3 -10 8
-10 11 -20 8 -23 -3 -3 -2 -17 3 -30 6 -15 6 -26 -1 -30 -6 -3 -8 -17 -4 -31
4 -17 2 -23 -6 -18 -8 6 -8 2 0 -12 15 -29 10 -195 -7 -188 -7 3 -5 -6 5 -22
14 -21 15 -25 3 -18 -12 7 -13 6 -5 -6 14 -20 12 -55 -4 -51 -7 1 -10 -2 -6
-8 3 -6 11 -8 16 -4 7 4 9 -6 5 -26 -2 -18 -10 -36 -17 -41 -9 -5 -8 -11 4
-24 10 -9 14 -22 10 -28 -4 -6 -6 -29 -4 -51 1 -23 -3 -42 -11 -47 -10 -7 -10
-9 0 -9 6 0 12 -9 12 -20 0 -11 -4 -20 -10 -20 -5 0 -10 -5 -10 -11 0 -5 4 -8
8 -5 7 4 8 -48 2 -64 -1 -3 -2 -9 -1 -14 1 -5 -5 -6 -14 -3 -8 4 -15 2 -15 -3
0 -6 4 -10 8 -10 5 0 9 -7 9 -15 0 -8 -4 -15 -9 -15 -4 0 -8 -5 -8 -11 0 -5 5
-7 10 -4 14 9 12 -8 -2 -24 -7 -8 -8 -11 -3 -8 7 3 11 -8 11 -28 0 -18 -3 -32
-7 -30 -3 3 -5 -16 -4 -40 2 -36 -1 -45 -14 -45 -14 0 -16 -34 -13 -364 1
-269 -1 -367 -9 -372 -8 -4 -9 -3 -5 4 11 18 0 14 -15 -5 -8 -9 -9 -14 -3 -10
7 4 14 0 18 -8 3 -8 0 -17 -6 -21 -7 -5 -8 -2 -3 7 6 11 5 11 -5 2 -14 -13 -4
-37 12 -27 7 4 8 2 4 -5 -4 -6 -11 -9 -16 -6 -4 3 -10 -2 -13 -10 -4 -10 -1
-12 10 -8 10 4 14 2 9 -5 -3 -6 -2 -13 4 -17 6 -4 8 -11 4 -16 -3 -5 -10 -7
-15 -3 -5 3 -7 10 -4 15 4 5 2 9 -4 9 -5 0 -8 -13 -6 -30 2 -16 -1 -30 -6 -30
-5 0 -4 -6 3 -14 10 -11 16 -11 28 -2 13 9 13 9 1 -6 -10 -14 -17 -15 -33 -7
-16 9 -19 8 -12 -3 5 -7 7 -21 6 -30 -2 -10 1 -18 7 -18 6 0 8 8 5 18 -4 13
-3 14 4 4 5 -8 9 -23 8 -35 -1 -12 3 -26 9 -30 6 -5 0 -7 -12 -4 -30 7 -40
-11 -17 -28 17 -13 17 -14 2 -15 -22 0 -29 -13 -16 -30 8 -12 9 -12 4 3 -3 10
0 17 8 17 18 0 15 -63 -4 -72 -13 -6 -13 -7 0 -7 9 -1 16 -9 17 -20 1 -13 -5
-18 -19 -17 -12 0 -23 -6 -25 -14 -3 -9 -1 -11 4 -5 11 14 35 13 41 -3 2 -8
-3 -10 -15 -6 -17 5 -17 5 1 -6 15 -10 16 -14 5 -21 -11 -7 -11 -9 -1 -9 10 0
9 -7 -3 -29 -13 -27 -13 -31 1 -45 8 -9 11 -16 5 -16 -6 0 -9 -19 -7 -44 1
-25 0 -43 -3 -41 -3 1 -14 -8 -24 -21 -14 -19 -15 -23 -2 -18 8 3 15 10 15 15
0 5 3 9 8 9 4 0 7 -15 7 -34 0 -19 -2 -33 -6 -30 -4 2 -10 -8 -13 -21 -4 -16
-11 -23 -18 -19 -7 4 -8 3 -4 -5 5 -8 12 -9 20 -2 8 7 12 5 13 -9 1 -11 -3
-23 -9 -26 -7 -5 -8 -2 -3 7 8 12 6 12 -8 0 -18 -15 -23 -26 -7 -16 6 3 10 1
10 -4 0 -6 -5 -11 -12 -11 -6 0 -8 -3 -5 -6 4 -4 12 -2 19 4 10 8 13 2 13 -28
1 -31 -2 -37 -12 -28 -14 12 -18 22 -5 14 5 -3 9 1 9 8 0 7 -6 13 -13 13 -7 0
-11 -9 -8 -20 2 -11 -2 -28 -9 -36 -11 -14 -10 -15 8 -1 19 15 19 15 2 -12
-10 -16 -14 -28 -10 -28 5 0 1 -5 -7 -11 -13 -9 -12 -10 3 -5 10 3 15 2 12 -3
-3 -5 -1 -12 5 -16 6 -4 8 -11 4 -16 -3 -5 -10 -7 -15 -3 -5 3 -6 10 -3 16 4
7 2 8 -4 4 -9 -5 -9 -13 0 -29 7 -12 13 -25 14 -29 1 -5 3 -11 4 -15 2 -5 3
-29 4 -55 1 -33 -2 -48 -11 -48 -15 0 -17 -17 -3 -22 17 -5 20 -88 4 -88 -17
0 -18 -12 -4 -26 13 -13 -5 -68 -20 -59 -5 3 -23 -4 -39 -16 -26 -19 -29 -25
-18 -43 14 -24 14 -27 16 -79 0 -21 5 -36 10 -33 15 10 10 -146 -6 -171 -8
-12 -12 -27 -8 -33 3 -5 2 -10 -4 -10 -5 0 -13 5 -16 10 -4 6 -11 8 -16 5 -10
-7 11 -34 25 -32 4 1 10 -52 12 -117 3 -120 10 -141 41 -129 10 4 13 0 11 -13
-2 -16 4 -19 37 -20 62 -1 67 -3 59 -16 -6 -10 -5 -10 8 -1 8 7 18 10 21 7 6
-6 17 -8 66 -13 7 0 11 -7 7 -16 -8 -22 7 -18 21 4 10 15 10 21 0 24 -7 3 -4
6 6 6 11 1 15 6 11 13 -4 6 -3 8 3 5 13 -8 9 -53 -5 -50 -6 1 -7 -7 -4 -20 5
-18 7 -19 10 -4 2 9 8 17 14 17 5 0 8 -7 5 -15 -5 -11 -1 -12 18 -5 20 8 23 6
18 -7 -5 -13 -3 -13 14 -5 15 8 22 7 31 -9 10 -16 16 -17 33 -8 19 10 20 9 8
-13 -11 -21 -11 -22 4 -10 13 11 21 11 46 -2 16 -9 34 -22 38 -29 8 -14 79
-50 123 -62 35 -10 50 -24 43 -41 -3 -8 0 -14 7 -14 6 0 8 -4 5 -10 -3 -6 1
-7 10 -4 14 6 14 7 0 18 -14 10 -14 13 0 31 10 14 14 15 13 5 -2 -10 4 -14 15
-12 24 4 70 -26 64 -41 -3 -8 11 -12 45 -11 27 1 51 4 53 8 3 3 2 4 -2 1 -13
-10 -33 18 -33 45 0 27 2 28 44 27 25 -1 44 2 43 8 -1 6 12 9 28 8 17 -2 37
-3 45 -3 17 0 46 -1 73 -3 9 -1 18 -5 18 -9 1 -4 3 -12 4 -18 1 -5 3 -24 4
-41 0 -17 5 -28 11 -24 20 12 26 -62 6 -77 -6 -4 -5 -13 3 -22 15 -17 7 -36
-15 -36 -14 0 -13 -2 0 -16 26 -25 33 -46 35 -103 1 -35 8 -59 17 -66 13 -9
16 -40 17 -167 1 -86 6 -156 10 -155 5 1 10 -17 12 -41 3 -37 1 -43 -13 -38
-15 5 -15 5 -1 -6 9 -8 19 -36 22 -68 16 -132 21 -156 33 -165 9 -7 15 -42 17
-108 2 -67 7 -101 16 -106 9 -6 10 -10 2 -15 -6 -4 -8 -13 -4 -19 11 -17 11
-61 0 -68 -15 -10 -13 -157 3 -172 10 -9 11 -9 6 1 -4 6 -3 12 2 12 15 0 20
-31 18 -109 0 -39 1 -67 2 -61 2 5 8 10 13 10 6 0 8 -4 4 -9 -3 -5 0 -15 7
-23 8 -8 13 -38 12 -75 0 -35 3 -63 7 -63 4 0 3 -16 -1 -35 -4 -19 -4 -33 0
-30 9 6 22 -86 26 -175 1 -36 5 -73 9 -82 4 -9 5 -46 3 -82 -2 -55 0 -66 15
-70 17 -4 19 -13 20 -123 0 -23 4 -40 9 -37 4 3 9 -3 9 -13 3 -44 7 -64 11
-69 3 -3 2 -21 -2 -40 -6 -26 -5 -34 6 -34 12 0 14 -15 12 -75 -2 -61 1 -77
15 -87 15 -11 18 -41 22 -233 4 -154 9 -221 17 -227 7 -4 9 -10 6 -14 -7 -7
19 -38 34 -40 4 -1 13 -2 19 -3 6 0 9 -10 6 -21 -3 -11 3 -29 14 -41 23 -27
24 -39 3 -39 -8 0 -12 -5 -9 -10 4 -6 10 -8 14 -5 5 2 23 -9 40 -25 30 -29 41
-48 21 -35 -6 3 -7 -1 -4 -9 3 -9 9 -14 14 -13 4 1 27 -19 50 -46 23 -26 50
-47 61 -47 26 0 24 18 -5 41 -14 11 -28 29 -32 41 -8 26 -29 49 -37 42 -3 -3
-8 5 -12 18 -4 13 -16 35 -27 51 -11 15 -17 27 -13 27 3 0 -6 12 -20 27 -14
16 -24 36 -21 45 2 10 -3 20 -14 23 -29 9 -56 95 -30 95 6 0 10 7 10 15 0 22
17 18 35 -7 8 -13 18 -22 20 -20 15 7 36 0 32 -10 -3 -8 6 -14 25 -15 16 -1
26 2 23 7 -3 5 7 6 22 4 16 -3 47 -7 70 -8 35 -2 41 0 31 11 -20 24 -46 33
-109 39 -63 5 -112 29 -104 51 2 7 -2 10 -10 7 -19 -7 -23 24 -9 65 9 28 9 37
-2 48 -12 12 -11 31 4 57 2 4 6 27 7 51 1 23 5 47 9 53 4 7 2 12 -3 12 -18 0
-12 39 7 49 15 8 17 24 14 154 -3 137 -4 145 -22 140 -19 -5 -19 5 -19 310 0
221 -3 322 -11 337 -7 12 -12 51 -11 86 0 35 -3 64 -7 64 -9 0 -6 216 4 231
13 22 1 262 -25 479 -5 41 -6 77 -2 80 11 9 12 33 1 40 -6 3 -12 30 -14 58 -2
29 -1 50 3 48 4 -3 7 6 7 19 0 13 -3 22 -6 20 -13 -8 -5 142 9 158 17 22 19
276 2 286 -7 5 -9 15 -5 26 4 10 3 16 -2 13 -5 -3 -9 15 -10 41 -1 42 1 47 20
46 30 -3 59 14 52 31 -13 33 4 44 71 44 55 0 64 -2 59 -16 -3 -8 -2 -12 3 -9
5 3 12 1 16 -5 4 -6 11 -8 16 -5 13 9 11 -29 -3 -43 -9 -9 -9 -12 0 -12 7 0
10 -14 8 -40 -2 -22 1 -37 5 -34 5 3 16 -1 24 -10 10 -10 12 -17 5 -21 -7 -4
-8 -11 -2 -18 6 -7 9 -35 8 -64 0 -28 2 -49 6 -47 12 8 20 -18 25 -80 2 -33 6
-90 8 -125 4 -53 2 -66 -12 -77 -17 -13 -17 -14 1 -7 16 5 18 3 14 -15 -4 -12
-2 -20 3 -17 15 10 28 -86 35 -252 5 -112 -2 -134 -26 -95 -11 16 -11 16 -6
-1 3 -10 6 -21 6 -23 0 -2 11 -4 25 -4 22 0 25 -4 25 -35 0 -19 -5 -35 -10
-35 -6 0 -5 -8 2 -21 11 -17 10 -22 -4 -30 -16 -9 -17 -13 -3 -38 8 -16 11
-31 8 -35 -4 -3 -1 -6 5 -6 7 0 12 -12 12 -28 0 -19 7 -30 23 -37 19 -9 22
-18 23 -70 3 -92 3 -97 12 -91 5 3 9 -27 9 -67 1 -45 -3 -75 -10 -79 -9 -6 -9
-8 1 -8 7 0 10 -4 7 -10 -3 -6 1 -7 10 -4 15 6 16 -3 13 -73 -2 -58 0 -79 9
-76 13 5 25 -42 27 -107 1 -25 5 -51 10 -58 11 -18 17 -132 8 -132 -4 0 -8 -9
-8 -20 0 -10 2 -17 5 -15 9 10 39 -37 34 -55 -4 -14 0 -20 11 -20 9 0 17 -8
17 -17 1 -10 2 -27 3 -38 0 -11 5 -26 10 -34 13 -21 17 -123 4 -138 -8 -10 -7
-12 4 -8 19 7 32 -44 16 -62 -7 -9 -7 -13 1 -13 13 0 11 -52 -4 -62 -6 -5 -5
-8 3 -8 7 0 10 -4 7 -10 -4 -6 1 -7 11 -3 13 5 16 3 11 -10 -3 -9 1 -23 9 -32
9 -8 12 -20 8 -27 -24 -39 22 -117 68 -118 13 0 17 -7 14 -28 -3 -25 0 -28 24
-24 34 5 63 -23 57 -55 -4 -21 -1 -23 32 -23 l36 0 -1 67 c-1 66 -2 68 -28 71
-14 2 -26 8 -26 13 0 6 -4 7 -10 4 -5 -3 -10 0 -11 7 0 7 -2 23 -5 35 -3 18 0
21 25 17 19 -3 30 0 34 10 4 10 1 13 -7 10 -9 -3 -13 2 -11 18 1 13 3 30 4 40
1 11 7 15 23 10 14 -3 19 -1 14 6 -5 8 -2 10 8 6 9 -3 23 -4 31 0 13 5 13 8
-2 26 -10 11 -23 20 -29 20 -7 0 -14 5 -16 12 -3 7 -26 11 -64 10 -92 -3 -89
-9 -95 180 -1 43 -5 75 -10 72 -4 -2 -6 -11 -2 -19 8 -21 -11 -18 -32 5 -12
13 -19 44 -24 107 -4 48 -4 90 0 93 4 3 7 34 6 70 -2 49 1 65 12 65 11 0 14
44 15 232 1 171 -2 233 -11 233 -19 0 -26 171 -27 667 -1 259 -4 469 -8 467
-4 -3 -6 11 -4 31 1 19 -1 35 -6 35 -12 0 -10 44 3 77 14 35 15 158 2 175 -12
16 -11 58 1 77 6 9 5 12 -1 8 -7 -4 -11 9 -10 36 0 29 5 44 14 44 17 0 17 -17
1 -18 -7 0 -2 -5 11 -10 15 -6 21 -15 17 -24 -3 -9 0 -15 10 -15 11 0 12 4 4
19 -14 28 -3 48 30 53 35 5 50 -7 51 -41 1 -20 3 -18 8 9 4 25 2 36 -7 38 -26
7 -5 27 24 23 16 -2 38 -5 49 -6 11 -1 24 -3 29 -4 5 0 3 -9 -5 -18 -7 -10 -2
-8 12 5 20 19 22 24 9 32 -13 9 -13 11 0 20 11 8 3 9 -30 6 -25 -2 -45 -5 -45
-6 0 -8 -42 -6 -52 2 -9 7 -13 7 -13 -1 0 -6 -4 -11 -9 -11 -4 0 -8 18 -7 40
1 24 6 40 13 40 7 0 10 -7 7 -15 -4 -8 -1 -15 6 -15 6 0 8 5 4 12 -5 7 -2 9 8
6 8 -4 21 -2 29 4 11 8 11 9 -3 4 -22 -7 -34 12 -18 27 10 9 11 9 6 0 -4 -7
-2 -13 3 -13 6 0 11 6 11 13 0 8 4 7 11 -3 8 -12 12 -12 16 -2 4 10 8 10 21 0
9 -7 13 -8 9 -2 -9 15 43 15 62 0 12 -9 13 -8 7 2 -6 10 -3 13 10 12 34 -4 59
0 49 8 -14 10 -19 46 -6 37 6 -3 11 -1 11 5 0 6 5 8 10 5 6 -3 10 -1 10 5 0 7
6 10 14 7 8 -3 20 1 27 9 6 8 20 12 30 9 9 -3 20 -1 24 5 5 8 12 7 23 -2 12
-10 14 -10 8 0 -10 16 12 15 47 -3 15 -8 25 -10 22 -5 -4 6 2 10 13 10 10 0
37 16 60 36 23 19 45 33 49 31 5 -3 18 -1 30 4 16 6 20 13 16 30 -4 15 -3 20
5 15 7 -4 12 -2 12 5 0 7 11 10 30 7 24 -4 30 -1 31 14 2 31 4 36 12 44 4 4 7
16 7 27 0 11 5 17 13 14 9 -3 11 14 9 73 -3 74 -4 77 -25 72 -12 -3 -16 -7
-10 -9 23 -8 -23 -92 -51 -93 -5 0 -7 3 -3 6 3 4 -1 13 -9 21 -8 8 -12 19 -9
24 4 5 2 9 -4 9 -5 0 -10 12 -9 28 0 15 -3 54 -6 86 -5 48 -3 57 7 47 12 -12
13 -19 16 -78 1 -25 5 -28 35 -29 l34 0 -4 100 c-2 56 -3 125 -4 154 0 49 -2
52 -25 52 -23 0 -31 14 -26 44 1 4 -2 13 -7 20 -13 16 -23 116 -12 116 6 0 10
-5 10 -11 0 -5 4 -8 9 -5 10 7 24 -22 16 -34 -3 -4 4 -10 15 -13 16 -4 20 0
20 19 0 14 7 27 16 31 16 6 15 7 0 18 -9 7 -16 17 -15 21 6 33 -2 41 -37 37
-28 -3 -42 1 -56 17 -11 12 -17 28 -14 36 3 8 0 17 -8 20 -7 3 -12 16 -10 30
1 14 -3 24 -11 24 -7 0 -15 7 -19 15 -3 8 -1 15 5 15 6 0 7 6 2 13 -7 12 -12
91 -13 235 0 55 -3 72 -14 72 -10 0 -13 11 -12 36 1 20 -2 38 -6 41 -5 2 -5
10 -1 16 4 7 -2 5 -12 -3 -10 -8 -16 -9 -11 -3 4 7 2 22 -5 35 -9 17 -9 24 5
33 16 13 23 30 7 21 -5 -3 -14 1 -20 8 -10 11 -8 17 6 25 17 10 17 10 0 11
-10 0 -16 4 -13 9 3 5 -1 14 -9 21 -8 7 -15 18 -15 24 0 6 5 3 11 -6 5 -10 15
-18 22 -18 9 0 8 3 -1 9 -7 4 -14 18 -15 29 -1 12 -4 22 -7 22 -3 0 -5 13 -5
29 -1 17 3 27 9 24 6 -4 6 1 2 13 -5 10 -9 25 -9 31 0 9 -4 10 -13 2 -18 -14
-29 8 -13 27 10 12 14 12 20 2 5 -7 9 -8 9 -2 0 20 -12 23 -35 8 -22 -14 -22
-14 -21 36 1 27 -1 50 -4 50 -3 0 -7 41 -8 92 -3 72 -7 95 -20 104 -10 8 -17
27 -18 51 -2 93 -4 101 -22 105 -14 4 -17 17 -17 81 0 60 -3 77 -15 80 -13 3
-15 20 -15 80 1 43 -2 77 -7 77 -4 0 -7 41 -7 91 0 51 -4 96 -10 102 -7 7 -9
4 -6 -12 3 -14 0 -21 -8 -18 -8 2 -12 31 -12 85 0 57 -4 82 -12 82 -16 0 -25
52 -20 111 2 36 0 46 -10 42 -7 -3 -13 0 -13 7 0 6 -4 8 -10 5 -5 -3 -10 1
-10 9 0 8 4 17 9 20 4 3 3 25 -3 49 -6 25 -11 86 -11 136 0 50 -3 91 -7 91 -5
0 -8 11 -8 25 0 14 6 25 13 25 8 0 7 4 -3 11 -11 8 -12 12 -2 16 18 7 15 34
-3 27 -12 -5 -14 -1 -11 17 3 13 5 30 5 37 1 7 5 11 10 7 6 -3 8 3 6 14 -3 15
0 18 12 14 10 -4 14 -2 9 5 -3 6 -2 13 3 16 5 4 12 -4 14 -16 4 -22 4 -22 6 2
1 20 3 22 11 10 6 -9 10 -11 10 -3 0 7 7 10 17 6 10 -4 14 -2 10 4 -5 7 0 9
13 6 11 -3 20 -12 20 -19 0 -26 28 -14 39 17 6 17 21 40 32 50 25 21 24 21 60
23 14 1 32 8 40 16 34 35 89 108 89 117 0 6 7 16 15 23 21 17 19 30 -5 30 -11
0 -20 7 -20 16 0 9 5 12 13 8 6 -4 5 1 -5 12 -10 12 -14 30 -11 49 2 17 4 41
4 54 -1 13 3 29 8 35 5 6 11 43 14 82 5 70 5 71 -18 68 -33 -3 -65 35 -67 79
-1 21 -5 37 -10 37 -4 0 -8 9 -8 20 0 15 -9 22 -30 27 -16 3 -30 12 -30 19 0
8 -4 14 -8 14 -4 0 -8 9 -9 19 -1 14 10 24 36 34 21 9 38 22 38 31 0 8 -3 14
-6 13 -3 0 -16 2 -27 6 -17 6 -21 13 -16 30 5 20 4 21 -11 8 -16 -13 -17 -9
-13 53 2 45 -1 71 -9 80 -7 6 -13 25 -13 41 0 114 -2 123 -21 128 -18 4 -19
19 -18 358 l0 354 25 40 c14 22 32 45 39 50 17 13 24 103 9 112 -5 3 -6 1 -2
-5 5 -8 -4 -12 -28 -12 -20 0 -36 5 -36 11 0 12 50 76 56 72 14 -10 22 1 18
24 -7 39 -11 42 -45 36 -21 -3 -29 -1 -24 6 3 6 2 11 -3 11 -14 0 -3 98 14
126 16 24 16 25 -2 30 -17 5 -19 15 -19 127 1 67 -2 136 -5 152 -5 27 -10 30
-39 28 -28 -1 -32 1 -28 18 3 10 2 19 -3 19 -4 0 -8 23 -9 51 -1 54 -7 73 -22
64 -5 -4 -10 0 -11 7 0 7 -2 18 -3 23 -2 6 -3 20 -4 33 -1 15 -7 22 -21 22
-27 0 -43 42 -37 103 2 29 -1 51 -8 57 -7 6 -13 41 -14 82 -1 40 -4 74 -6 77
-3 2 -15 4 -27 5 -21 1 -23 6 -23 58 0 32 3 58 8 58 14 0 -17 39 -36 44 -11 2
-16 9 -12 16 4 6 1 17 -5 25 -7 9 -13 51 -14 102 -1 82 0 88 19 88 16 0 20 -6
19 -30 0 -24 4 -30 21 -31 20 -2 21 2 18 39 -3 22 -11 46 -20 52 -11 8 -14 20
-9 38 5 22 3 25 -11 20 -10 -3 -15 -3 -12 1 4 4 -4 35 -17 68 -13 33 -21 65
-18 69 3 5 1 9 -5 9 -5 0 -22 26 -36 58 -29 62 -44 185 -25 197 8 5 7 11 -1
21 -6 8 -9 25 -7 38 4 18 1 23 -9 19 -17 -7 -57 33 -48 47 4 6 1 9 -7 8 -8 -2
-14 8 -14 27 -1 17 -3 55 -4 85 -2 44 -4 49 -9 25 -4 -19 -13 -30 -23 -30 -9
0 -20 -4 -24 -8 -12 -12 -24 -8 -24 8 0 8 -5 15 -11 15 -6 0 -8 7 -5 17 4 10
4 14 0 11 -6 -7 -34 15 -34 27 0 4 -7 14 -16 22 -10 10 -13 25 -10 39 6 23 -5
30 -36 25 -5 0 -8 6 -8 14 0 8 -7 15 -15 15 -8 0 -31 22 -50 49 -21 29 -45 51
-59 53 -21 4 -23 3 -13 -14 7 -10 16 -18 20 -18 5 0 6 -7 3 -16 -3 -8 -2 -13
3 -9 12 7 41 -22 41 -41 0 -8 4 -13 10 -9 15 9 38 -37 36 -72 -2 -28 -1 -30
17 -20 15 10 21 9 25 -2 2 -8 19 -30 36 -50 55 -64 79 -104 83 -138 2 -18 0
-33 -4 -34 -5 0 -18 -2 -30 -3 -12 -1 -20 1 -17 6 4 5 12 7 20 4 20 -8 17 1
-11 32 -14 15 -23 33 -20 41 4 11 3 12 -10 1 -10 -8 -15 -9 -15 -1 0 6 -4 11
-10 11 -5 0 -7 -8 -4 -17 5 -15 4 -15 -4 -4 -7 10 -7 21 -1 33 7 13 6 18 -3
16 -7 -2 -12 5 -12 15 1 9 -2 17 -7 17 -12 0 -11 -24 1 -36 6 -6 3 -10 -9 -10
-11 0 -17 5 -14 14 3 7 2 12 -3 11 -22 -4 -35 2 -28 12 5 8 9 8 14 -1 6 -9 12
-6 21 11 11 21 10 22 -3 12 -12 -10 -20 -7 -43 17 -19 20 -32 27 -40 20 -7 -6
-15 -2 -25 13 -13 21 -12 21 6 7 18 -14 18 -14 5 3 -7 9 -21 17 -30 18 -13 0
-12 2 3 8 18 7 18 8 -4 24 -22 15 -40 54 -19 41 13 -8 11 7 -6 36 -7 14 -17
24 -22 22 -4 -1 -21 3 -38 10 -31 12 -42 15 -62 17 -7 1 -10 9 -7 19 4 12 3
13 -3 4 -8 -10 -15 -11 -36 -1 -15 7 -24 16 -21 20 3 5 0 10 -5 10 -6 1 -20 3
-31 4 -11 1 -25 3 -31 4 -5 0 -7 5 -4 11 3 6 -1 7 -9 4 -12 -4 -16 0 -17 17
-1 19 -2 20 -6 6 -3 -11 -10 -16 -20 -13 -8 3 -18 6 -23 6 -5 0 -12 9 -15 20
-4 12 -15 20 -28 20 -26 0 -51 15 -53 30 -1 5 -2 21 -3 34 -1 22 -5 24 -33 19
-44 -6 -65 -27 -49 -46 6 -8 9 -21 6 -30 -5 -13 -12 -13 -48 -2 -89 28 -107
37 -113 58 -4 19 -12 22 -57 21 -68 -1 -87 5 -88 25 0 9 -3 11 -5 5 -5 -11
-93 -2 -116 12 -14 9 -69 10 -91 1 -9 -3 -17 -3 -19 2 -2 4 -19 2 -38 -3z
m933 -285 c6 -6 7 -11 2 -11 -5 0 8 -9 29 -20 22 -10 42 -18 45 -15 4 2 13 0
19 -4 16 -10 4 -44 -13 -37 -7 2 -17 0 -23 -6 -6 -6 -12 -6 -17 1 -3 6 -3 11
2 10 4 -1 11 0 16 1 4 1 12 3 17 4 6 0 9 6 8 11 -2 6 -5 9 -8 8 -37 -13 -44
-14 -32 -6 9 7 7 12 -11 20 -18 9 -28 8 -36 0 -9 -9 -11 -8 -5 6 4 12 2 16 -8
12 -11 -5 -58 27 -58 39 0 8 63 -3 73 -13z m-48 -39 c-3 -3 -11 0 -18 7 -9 10
-8 11 6 5 10 -3 15 -9 12 -12z m75 -16 c0 -2 -7 -7 -16 -10 -8 -3 -12 -2 -9 4
6 10 25 14 25 6z m140 -46 c8 -5 11 -10 5 -10 -5 0 -17 5 -25 10 -8 5 -10 10
-5 10 6 0 17 -5 25 -10z m-55 -10 c3 -5 1 -10 -4 -10 -6 0 -11 5 -11 10 0 6 2
10 4 10 3 0 8 -4 11 -10z m45 -40 c0 -5 -2 -10 -4 -10 -3 0 -8 5 -11 10 -3 6
-1 10 4 10 6 0 11 -4 11 -10z m99 -44 c18 -19 20 -24 7 -29 -11 -4 -13 -1 -9
11 6 15 5 15 -10 3 -10 -8 -20 -11 -24 -7 -3 3 -1 6 5 6 6 0 9 9 7 20 -5 25
-3 25 24 -4z m-2035 -58 c-3 -31 -3 -30 -14 -23 -7 4 -7 13 0 26 14 25 17 24
14 -3z m2171 -68 c3 -5 1 -10 -4 -10 -6 0 -11 5 -11 10 0 6 2 10 4 10 3 0 8
-4 11 -10z m-2211 -16 c10 -26 7 -29 -9 -8 -14 19 -14 19 -15 0 0 -11 -3 -17
-6 -13 -9 8 3 37 15 37 5 0 12 -7 15 -16z m2226 -8 c0 -3 -4 -8 -10 -11 -5 -3
-10 -1 -10 4 0 6 5 11 10 11 6 0 10 -2 10 -4z m-2280 -61 c-11 -12 -18 -24
-14 -27 3 -3 0 -9 -7 -14 -7 -4 -10 -3 -5 4 3 6 2 13 -3 16 -13 8 -21 -20 -9
-32 6 -6 6 -12 -1 -17 -6 -3 -10 -3 -9 2 2 4 -1 8 -7 8 -5 0 -9 -7 -8 -15 1
-11 -2 -10 -12 4 -16 21 -11 36 12 36 10 0 13 6 9 16 -3 8 -2 13 3 10 4 -3 16
3 25 13 9 10 23 18 31 18 12 0 11 -5 -5 -22z m2340 21 c0 -3 -4 -8 -10 -11 -5
-3 -10 -1 -10 4 0 6 5 11 10 11 6 0 10 -2 10 -4z m-2310 -26 c0 -5 -5 -10 -11
-10 -5 0 -7 5 -4 10 3 6 8 10 11 10 2 0 4 -4 4 -10z m2318 -2 c-2 -7 2 -12 9
-13 7 0 17 -6 23 -12 7 -10 7 -10 -2 -3 -8 6 -17 5 -27 -3 -11 -9 -13 -9 -8 0
4 6 3 14 -3 18 -6 4 -8 11 -5 16 9 13 15 11 13 -3z m32 -53 c0 13 20 -17 20
-30 0 -5 -5 -3 -10 5 -5 8 -10 11 -10 5 0 -13 -20 17 -20 30 0 6 5 3 10 -5 5
-8 10 -10 10 -5z m20 -55 c-13 -9 -13 -11 0 -20 8 -5 10 -10 4 -10 -6 0 -17 6
-23 14 -9 11 -9 15 1 19 22 9 34 7 18 -3z m10 -46 c0 -8 -19 -13 -24 -6 -3 5
1 9 9 9 8 0 15 -2 15 -3z m-1767 -169 c8 -8 18 -11 22 -7 5 4 5 1 1 -6 -4 -7
-2 -19 4 -27 15 -19 18 -18 -58 -20 l-63 -2 3 31 c4 44 60 63 91 31z m-723
-291 c0 -8 -19 -13 -24 -6 -3 5 1 9 9 9 8 0 15 -2 15 -3z m2150 -18 c0 -3 -4
-8 -10 -11 -5 -3 -10 -1 -10 4 0 6 5 11 10 11 6 0 10 -2 10 -4z m560 -646 c0
-5 -5 -10 -11 -10 -5 0 -7 5 -4 10 3 6 8 10 11 10 2 0 4 -4 4 -10z m7 -35 c0
-8 -4 -12 -9 -9 -5 3 -6 10 -3 15 9 13 12 11 12 -6z m-3526 -187 c-5 -13 -15
-23 -22 -24 -29 -1 -30 9 -2 27 35 23 34 24 24 -3z m1186 -1100 c-3 -7 -5 -2
-5 12 0 14 2 19 5 13 2 -7 2 -19 0 -25z m8 -47 c3 -5 1 -12 -5 -16 -5 -3 -10
1 -10 9 0 18 6 21 15 7z m-5 -48 c0 -5 -5 -15 -10 -23 -8 -12 -10 -11 -10 8 0
12 5 22 10 22 6 0 10 -3 10 -7z m2184 -681 c3 -5 -1 -9 -9 -9 -8 0 -12 4 -9 9
3 4 7 8 9 8 2 0 6 -4 9 -8z m-19 -51 c3 -5 2 -12 -3 -15 -5 -3 -9 1 -9 9 0 17
3 19 12 6z m-1898 -746 c0 -8 -4 -12 -9 -9 -5 3 -6 10 -3 15 9 13 12 11 12 -6z
m-22 -125 c3 -5 1 -10 -4 -10 -6 0 -11 5 -11 10 0 6 2 10 4 10 3 0 8 -4 11
-10z m2145 -8 c0 -12 -3 -12 -15 -2 -13 11 -14 10 -9 -6 6 -15 4 -17 -6 -7 -7
6 -10 15 -7 20 9 15 37 11 37 -5z m-2137 -20 c2 7 7 10 11 7 4 -3 0 -11 -7
-18 -11 -9 -17 -7 -28 6 -13 16 -12 17 3 5 13 -10 17 -10 21 0z m-17 -47 c-3
-8 0 -15 7 -18 7 -2 5 -5 -4 -9 -11 -4 -15 1 -14 22 0 16 4 26 8 23 5 -3 6
-11 3 -18z m2099 -15 c-3 -5 -12 -10 -18 -10 -7 0 -6 4 3 10 19 12 23 12 15 0z
m-2090 -58 c-3 -3 -11 0 -18 7 -9 10 -8 11 6 5 10 -3 15 -9 12 -12z m-14 -235
c-6 -8 -8 -17 -4 -20 3 -4 1 -7 -5 -7 -15 0 -15 13 0 28 16 16 23 15 9 -1z
m-4 -52 c0 -8 -4 -12 -9 -9 -5 3 -6 10 -3 15 9 13 12 11 12 -6z m-10 -43 c-10
-10 -14 -22 -10 -25 3 -4 1 -7 -5 -7 -7 0 -12 3 -12 7 0 8 31 43 38 43 3 0 -2
-8 -11 -18z m2130 -49 c0 -9 -4 -10 -14 -2 -7 6 -13 12 -13 14 0 1 6 2 13 2 8
0 14 -6 14 -14z m-2146 -16 c-10 -9 -11 -8 -5 6 3 10 9 15 12 12 3 -3 0 -11
-7 -18z m14 -17 c-17 -19 -17 -20 0 -20 10 0 16 -3 12 -6 -3 -4 -14 -4 -23 0
-15 6 -15 8 1 26 10 11 20 20 23 20 3 0 -3 -9 -13 -20z m2140 -10 c-3 -5 -12
-10 -18 -10 -7 0 -6 4 3 10 19 12 23 12 15 0z m-2148 -45 c0 -8 -4 -12 -9 -9
-5 3 -6 10 -3 15 9 13 12 11 12 -6z m2173 -19 c0 -13 -13 -36 -21 -36 -4 0 -5
7 -2 17 5 12 3 14 -7 8 -9 -5 -11 -4 -6 3 7 11 36 17 36 8z m-13 -53 c-4 -3 0
-14 9 -24 14 -16 14 -18 -8 -29 -21 -10 -21 -10 -5 3 15 13 15 16 2 27 -14 11
-12 30 2 30 4 0 3 -3 0 -7z m-2167 -13 c0 -5 -5 -10 -11 -10 -5 0 -7 5 -4 10
3 6 8 10 11 10 2 0 4 -4 4 -10z m-2 -45 c-3 -3 -9 2 -12 12 -6 14 -5 15 5 6 7
-7 10 -15 7 -18z m488 -851 c1 -9 0 -13 -4 -10 -3 4 -7 14 -8 22 -1 9 0 13 4
10 3 -4 7 -14 8 -22z m4 -28 c0 -2 -6 -9 -14 -15 -11 -9 -16 -9 -22 0 -4 7 -3
9 4 5 6 -3 13 -2 17 4 6 10 15 14 15 6z m20 -20 c0 -2 -8 -10 -17 -17 -16 -13
-17 -12 -4 4 13 16 21 21 21 13z m-45 -24 c-3 -3 -11 0 -18 7 -9 10 -8 11 6 5
10 -3 15 -9 12 -12z m42 -39 c0 -8 -4 -10 -12 -3 -7 5 -16 6 -20 2 -5 -4 -5
-2 -2 4 9 15 34 13 34 -3z m-37 -27 c0 -2 -7 -7 -16 -10 -8 -3 -12 -2 -9 4 6
10 25 14 25 6z m-570 -41 c0 -2 -6 -5 -13 -8 -8 -3 -14 1 -14 8 0 7 6 11 14 8
7 -3 13 -6 13 -8z m610 1 c0 -3 -4 -8 -10 -11 -5 -3 -10 -1 -10 4 0 6 5 11 10
11 6 0 10 -2 10 -4z m-7 -61 c-3 -9 -8 -14 -10 -11 -3 3 -2 9 2 15 9 16 15 13
8 -4z m-33 -5 c0 -5 -2 -10 -4 -10 -3 0 -8 5 -11 10 -3 6 -1 10 4 10 6 0 11
-4 11 -10z m-604 -1669 c-20 -22 -12 -46 11 -37 8 4 11 1 8 -5 -4 -6 -13 -8
-21 -5 -8 3 -14 1 -14 -4 0 -6 6 -10 13 -11 10 0 10 -2 0 -6 -25 -10 -12 -20
20 -17 17 2 28 0 22 -4 -16 -11 -14 -40 2 -47 11 -3 13 -1 9 10 -8 22 2 18 15
-6 8 -17 8 -20 -1 -14 -8 5 -11 3 -8 -6 3 -8 11 -13 17 -11 14 3 15 -15 1 -23
-5 -3 -10 -2 -10 4 0 5 -9 8 -20 6 -11 -2 -20 0 -20 6 0 5 -16 6 -35 3 -32 -5
-34 -3 -28 18 3 13 6 51 5 85 0 35 4 61 8 58 4 -3 13 2 20 10 7 8 15 15 18 15
3 0 -3 -9 -12 -19z m124 -146 c0 -7 -30 -13 -34 -7 -3 4 4 9 15 9 10 1 19 0
19 -2z m0 -19 c0 -2 -8 -10 -17 -17 -16 -13 -17 -12 -4 4 13 16 21 21 21 13z
m93 -71 c-3 -9 -8 -14 -10 -11 -3 3 -2 9 2 15 9 16 15 13 8 -4z"/>
<path d="M16713 20702 c13 -13 20 -13 29 -4 7 7 8 12 3 13 -6 0 -19 2 -29 4
-18 3 -18 2 -3 -13z"/>
<path d="M14859 20303 c-13 -16 -12 -17 4 -4 16 13 21 21 13 21 -2 0 -10 -8
-17 -17z"/>
<path d="M15243 12393 c-10 -4 -9 -8 2 -20 8 -8 12 -20 8 -26 -3 -7 -2 -9 2
-4 12 10 17 45 7 50 -4 2 -13 2 -19 0z"/>
<path d="M16263 20985 c0 -8 4 -12 9 -9 5 3 6 10 3 15 -9 13 -12 11 -12 -6z"/>
<path d="M16286 20975 c-4 -10 1 -15 14 -15 13 0 18 5 14 15 -4 8 -10 15 -14
15 -4 0 -10 -7 -14 -15z"/>
<path d="M16343 20944 c9 -3 14 -10 11 -16 -4 -6 -1 -9 5 -7 22 8 16 24 -9 26
-15 1 -18 0 -7 -3z"/>
<path d="M15288 20911 c-10 -13 -10 -14 1 -4 7 6 20 9 27 6 8 -3 14 -1 14 4 0
15 -29 11 -42 -6z"/>
<path d="M15236 20894 c-10 -26 5 -39 21 -19 7 11 13 22 13 27 0 15 -28 8 -34
-8z"/>
<path d="M15210 20861 c0 -6 4 -13 10 -16 6 -3 7 1 4 9 -7 18 -14 21 -14 7z"/>
<path d="M15170 20835 c0 -8 2 -15 4 -15 2 0 6 7 10 15 3 8 1 15 -4 15 -6 0
-10 -7 -10 -15z"/>
<path d="M16955 20679 c-5 -8 -4 -10 0 -6 5 4 15 -3 22 -15 7 -13 12 -18 13
-12 0 5 -6 18 -13 29 -12 15 -15 16 -22 4z"/>
<path d="M16975 20581 c-3 -5 -2 -12 3 -15 5 -3 9 1 9 9 0 17 -3 19 -12 6z"/>
<path d="M15269 19403 c-13 -16 -12 -17 4 -4 16 13 21 21 13 21 -2 0 -10 -8
-17 -17z"/>
<path d="M13970 19388 c0 -10 4 -18 9 -18 5 0 11 8 13 18 3 11 0 19 -8 19 -8
0 -14 -9 -14 -19z"/>
<path d="M13946 19368 c5 -7 2 -9 -7 -6 -10 4 -15 -1 -17 -15 0 -12 -6 -23
-12 -25 -5 -2 -10 -10 -10 -18 0 -8 -10 -14 -25 -14 -23 0 -32 -17 -26 -53 3
-18 -21 -48 -35 -43 -9 3 -12 2 -9 -5 4 -6 -2 -13 -13 -16 -17 -4 -21 -15 -24
-60 -4 -67 7 -75 89 -67 l58 6 -2 42 c-1 24 5 51 15 66 9 14 17 29 17 35 0 15
34 18 53 4 14 -11 15 -11 5 1 -7 8 -13 29 -13 47 0 20 5 33 13 33 8 0 8 3 2 8
-6 4 -12 17 -12 29 -1 11 -10 31 -20 42 -18 22 -39 29 -27 9z"/>
<path d="M14053 19290 c-1 -11 2 -22 6 -24 4 -3 7 4 6 14 -2 27 -10 33 -12 10z"/>
<path d="M14033 19247 c0 -8 6 -14 14 -14 9 0 10 4 2 14 -6 7 -12 13 -14 13
-1 0 -2 -6 -2 -13z"/>
<path d="M15185 19180 c-3 -6 1 -7 9 -4 18 7 21 14 7 14 -6 0 -13 -4 -16 -10z"/>
<path d="M13977 18935 c-4 -8 -1 -17 6 -21 7 -4 9 -4 5 1 -4 4 -3 14 3 22 7 8
8 13 1 13 -5 0 -12 -7 -15 -15z"/>
<path d="M13967 18863 c4 -9 2 -14 -3 -10 -5 3 -10 -3 -10 -14 0 -18 2 -18 12
-5 6 9 13 14 16 11 2 -3 5 2 5 10 0 8 -6 16 -13 19 -9 3 -11 -1 -7 -11z"/>
<path d="M13935 18740 c-3 -5 -1 -10 4 -10 6 0 11 5 11 10 0 6 -2 10 -4 10 -3
0 -8 -4 -11 -10z"/>
<path d="M12915 17329 c-4 -6 -5 -12 -2 -15 2 -3 7 2 10 11 7 17 1 20 -8 4z"/>
<path d="M12942 17328 c-16 -16 -15 -35 1 -41 9 -3 13 5 12 24 0 16 0 29 0 29
-1 0 -6 -5 -13 -12z"/>
<path d="M15030 17100 c0 -5 5 -10 10 -10 6 0 10 5 10 10 0 6 -4 10 -10 10 -5
0 -10 -4 -10 -10z"/>
<path d="M17844 17018 c-4 -7 -2 -14 4 -16 6 -2 9 -9 6 -17 -8 -19 9 -25 23
-9 8 8 9 15 3 19 -6 4 -8 10 -5 15 3 4 -2 10 -10 14 -8 3 -18 0 -21 -6z"/>
<path d="M15018 16997 c-3 -19 -2 -25 4 -19 6 6 8 18 6 28 -3 14 -5 12 -10 -9z"/>
<path d="M14964 16950 c0 -13 4 -16 10 -10 7 7 7 13 0 20 -6 6 -10 3 -10 -10z"/>
<path d="M17905 16949 c-4 -6 -5 -12 -2 -15 2 -3 7 2 10 11 7 17 1 20 -8 4z"/>
<path d="M14966 16753 c-6 -14 -5 -15 5 -6 7 7 10 15 7 18 -3 3 -9 -2 -12 -12z"/>
<path d="M17981 16697 c-8 -10 -7 -18 2 -31 12 -16 13 -15 13 13 0 35 0 36
-15 18z"/>
<path d="M14990 16606 c0 -2 7 -7 16 -10 8 -3 12 -2 9 4 -6 10 -25 14 -25 6z"/>
<path d="M18143 16473 c-8 -3 -13 -22 -13 -45 0 -23 3 -39 6 -35 5 5 25 89 20
86 0 0 -7 -3 -13 -6z"/>
<path d="M17976 16373 c-6 -14 -5 -15 5 -6 7 7 10 15 7 18 -3 3 -9 -2 -12 -12z"/>
<path d="M15329 16243 c-13 -16 -12 -17 4 -4 16 13 21 21 13 21 -2 0 -10 -8
-17 -17z"/>
<path d="M13799 15780 c-4 -31 -2 -38 13 -53 19 -20 23 -15 27 31 2 27 -1 32
-18 32 -12 0 -22 -4 -22 -10z"/>
<path d="M17760 15656 c0 -8 4 -17 9 -20 5 -4 7 3 4 14 -6 23 -13 26 -13 6z"/>
<path d="M17766 15585 c4 -8 8 -15 10 -15 2 0 4 7 4 15 0 8 -4 15 -10 15 -5 0
-7 -7 -4 -15z"/>
<path d="M15310 15580 c0 -5 5 -10 11 -10 5 0 7 5 4 10 -3 6 -8 10 -11 10 -2
0 -4 -4 -4 -10z"/>
<path d="M15300 15444 c0 -5 7 -18 15 -28 8 -11 15 -16 15 -10 0 5 -7 18 -15
28 -8 11 -15 16 -15 10z"/>
<path d="M17790 15400 c0 -5 4 -10 9 -10 6 0 13 5 16 10 3 6 -1 10 -9 10 -9 0
-16 -4 -16 -10z"/>
<path d="M15300 15235 c-7 -9 -11 -17 -9 -20 3 -2 10 5 17 15 14 24 10 26 -8
5z"/>
<path d="M17831 15194 c0 -11 3 -14 6 -6 3 7 2 16 -1 19 -3 4 -6 -2 -5 -13z"/>
<path d="M15226 14122 c-3 -5 1 -9 9 -9 8 0 15 4 15 9 0 4 -4 8 -9 8 -6 0 -12
-4 -15 -8z"/>
<path d="M14354 14043 c1 -19 8 -38 16 -43 10 -6 10 -15 2 -39 -6 -17 -10 -31
-9 -32 28 -11 32 -4 34 66 2 70 1 73 -22 77 -22 5 -24 2 -21 -29z"/>
<path d="M15215 13990 c-3 -6 1 -7 9 -4 18 7 21 14 7 14 -6 0 -13 -4 -16 -10z"/>
<path d="M14325 13979 c-4 -6 -5 -12 -2 -15 2 -3 7 2 10 11 7 17 1 20 -8 4z"/>
<path d="M15201 13856 c-15 -18 5 -34 22 -17 9 9 7 10 -8 5 -18 -7 -18 -6 -6
9 7 9 11 17 8 17 -2 0 -10 -6 -16 -14z"/>
<path d="M15196 13801 c-3 -5 2 -15 12 -22 15 -12 16 -12 5 2 -7 9 -10 19 -6
22 3 4 4 7 0 7 -3 0 -8 -4 -11 -9z"/>
<path d="M15195 13730 c-3 -5 -1 -10 4 -10 6 0 11 5 11 10 0 6 -2 10 -4 10 -3
0 -8 -4 -11 -10z"/>
<path d="M15214 13632 c3 -6 -2 -13 -11 -15 -16 -4 -16 -5 -1 -6 21 -1 32 15
17 25 -7 4 -9 3 -5 -4z"/>
<path d="M15131 12994 c0 -11 3 -14 6 -6 3 7 2 16 -1 19 -3 4 -6 -2 -5 -13z"/>
<path d="M18503 12820 c1 -14 4 -16 14 -8 16 13 16 15 -1 21 -10 4 -14 0 -13
-13z"/>
<path d="M17964 12428 l-19 -23 23 19 c21 18 27 26 19 26 -2 0 -12 -10 -23
-22z"/>
<path d="M17979 12413 c-13 -16 -12 -17 4 -4 9 7 17 15 17 17 0 8 -8 3 -21
-13z"/>
<path d="M15295 12260 c3 -5 8 -10 11 -10 2 0 4 5 4 10 0 6 -5 10 -11 10 -5 0
-7 -4 -4 -10z"/>
<path d="M15330 12260 c0 -5 5 -10 10 -10 6 0 10 5 10 10 0 6 -4 10 -10 10 -5
0 -10 -4 -10 -10z"/>
<path d="M17610 12245 c0 -9 5 -15 11 -13 6 2 11 8 11 13 0 5 -5 11 -11 13 -6
2 -11 -4 -11 -13z"/>
<path d="M17700 12251 c0 -6 5 -13 10 -16 6 -3 10 1 10 9 0 9 -4 16 -10 16 -5
0 -10 -4 -10 -9z"/>
<path d="M17730 12220 c0 -5 -7 -10 -16 -10 -9 0 -12 -5 -8 -12 5 -7 2 -9 -9
-5 -11 4 -14 2 -10 -9 6 -17 44 -19 61 -2 17 17 15 48 -3 48 -8 0 -15 -4 -15
-10z"/>
<path d="M17621 12190 c-18 -11 0 -19 23 -10 16 5 17 8 4 12 -8 4 -21 3 -27
-2z"/>
<path d="M17776 12191 c-4 -7 -5 -15 -2 -18 9 -9 19 4 14 18 -4 11 -6 11 -12
0z"/>
<path d="M17500 12186 c0 -2 7 -7 16 -10 8 -3 12 -2 9 4 -6 10 -25 14 -25 6z"/>
<path d="M15675 12070 c-3 -6 -11 -8 -16 -4 -6 3 -5 -3 2 -15 10 -14 15 -17
21 -8 6 9 8 8 8 -2 0 -12 3 -11 13 2 11 16 13 16 29 -2 9 -11 15 -21 13 -23
-2 -2 4 -4 15 -5 37 -3 58 47 22 53 -13 2 -21 0 -18 -5 4 -5 3 -11 -1 -14 -5
-2 -3 -3 3 -1 6 1 11 -4 11 -12 0 -8 -4 -14 -8 -14 -13 0 -24 23 -22 45 2 11
0 14 -3 7 -5 -10 -9 -10 -20 -1 -11 9 -14 9 -14 -1 0 -10 -3 -10 -14 -1 -10 8
-16 9 -21 1z m19 -8 c3 -5 -1 -9 -9 -9 -8 0 -12 4 -9 9 3 4 7 8 9 8 2 0 6 -4
9 -8z"/>
<path d="M17429 12067 c7 -7 14 -8 21 -1 6 6 2 10 -12 11 -16 2 -18 -1 -9 -10z"/>
<path d="M15710 12036 c0 -8 4 -17 9 -20 5 -4 7 3 4 14 -6 23 -13 26 -13 6z"/>
<path d="M15795 12009 c-4 -6 -5 -12 -2 -15 2 -3 7 2 10 11 7 17 1 20 -8 4z"/>
<path d="M16046 12001 c-3 -5 1 -14 9 -21 13 -10 15 -9 15 9 0 21 -14 28 -24
12z"/>
<path d="M16080 11969 c0 -5 9 -9 20 -9 11 0 20 2 20 4 0 2 -9 6 -20 9 -11 3
-20 1 -20 -4z"/>
<path d="M16136 11961 c-4 -5 -2 -12 3 -15 5 -4 12 -2 15 3 4 5 2 12 -3 15 -5
4 -12 2 -15 -3z"/>
<path d="M17617 11834 c-3 -4 0 -19 9 -35 15 -30 26 -38 22 -16 -2 6 4 11 13
11 13 -1 14 3 5 22 -10 23 -35 31 -49 18z"/>
<path d="M15890 11350 c-12 -7 -12 -12 -3 -21 10 -10 14 -9 19 5 8 22 2 27
-16 16z"/>
<path d="M16969 11010 c-8 -28 -4 -46 11 -46 10 0 17 6 16 13 -2 13 -25 41
-27 33z"/>
<path d="M17041 10964 c0 -11 3 -14 6 -6 3 7 2 16 -1 19 -3 4 -6 -2 -5 -13z"/>
<path d="M15296 10415 c-4 -10 1 -15 14 -15 13 0 18 5 14 15 -4 8 -10 15 -14
15 -4 0 -10 -7 -14 -15z"/>
<path d="M17235 9750 c3 -5 12 -7 20 -3 21 7 19 13 -6 13 -11 0 -18 -4 -14
-10z"/>
<path d="M17565 9401 c-3 -5 -2 -12 3 -15 5 -3 9 1 9 9 0 17 -3 19 -12 6z"/>
<path d="M16860 8950 c-12 -7 -10 -9 7 -7 12 0 19 5 17 9 -6 10 -6 10 -24 -2z"/>
<path d="M16852 8650 c0 -14 2 -19 5 -12 2 6 2 18 0 25 -3 6 -5 1 -5 -13z"/>
</g>
</svg>
